<svg xmlns="http://www.w3.org/2000/svg" xmlns:xlink="http://www.w3.org/1999/xlink" width="68" height="68" viewBox="0 0 68 68">
  <defs>
    <linearGradient id="linear-gradient" x1="0.5" x2="0.5" y2="1" gradientUnits="objectBoundingBox">
      <stop offset="0" stop-color="#ff6951"/>
      <stop offset="1" stop-color="#f33990"/>
    </linearGradient>
  </defs>
  <g id="_3d-icon" data-name="3d-icon" transform="translate(-1208 -1279)">
    <circle id="Ellipse_5" data-name="Ellipse 5" cx="34" cy="34" r="34" transform="translate(1208 1279)" fill="url(#linear-gradient)"/>
    <g id="_3d" data-name="3d" transform="translate(1222 1296)">
      <path id="Path_10" data-name="Path 10" d="M290.851,235.461c-.094.35-.17.707-.285,1.05a6.807,6.807,0,0,1-2.345,3.124,18.011,18.011,0,0,1-5.932,2.95,34.946,34.946,0,0,1-7.79,1.524,1.161,1.161,0,0,1-1.347-1.057,1.177,1.177,0,0,1,1.106-1.274c.375-.051.755-.07,1.13-.116a28.664,28.664,0,0,0,9.214-2.525,9.4,9.4,0,0,0,2.84-2,3.043,3.043,0,0,0,.04-4.572,9.051,9.051,0,0,0-2.672-1.962.508.508,0,0,1-.327-.539c.02-.718.006-1.438.006-2.256,2.89,1.435,5.623,2.91,6.361,6.395Q290.851,234.832,290.851,235.461Z" transform="translate(-250.661 -212.548)" fill="#fff"/>
      <path id="Path_11" data-name="Path 11" d="M153.46,87.911l2.115-1.222q3.63-2.1,7.26-4.2a1.3,1.3,0,0,1,1.4-.034q4.686,2.661,9.375,5.313c.045.025.085.06.173.122-.135.087-.245.165-.362.233q-4.746,2.754-9.491,5.505c-.167.1-.3.188-.527.056q-4.878-2.838-9.769-5.65C153.594,88.011,153.554,87.977,153.46,87.911Z" transform="translate(-143.527 -82.268)" fill="#fff"/>
      <path id="Path_12" data-name="Path 12" d="M261.612,173.247c-.006-.138-.017-.25-.017-.362q0-5.471-.005-10.942a.489.489,0,0,1,.261-.5q4.853-2.8,9.7-5.615c.056-.033.115-.058.208-.1a2.081,2.081,0,0,1,.036.261q0,5.315,0,10.629a1.224,1.224,0,0,1-.615,1.148q-4.7,2.718-9.4,5.428A1.2,1.2,0,0,1,261.612,173.247Z" transform="translate(-240.318 -148.018)" fill="#fff"/>
      <path id="Path_13" data-name="Path 13" d="M141.969,155.85c.163.086.277.142.387.206q4.719,2.721,9.439,5.439a.6.6,0,0,1,.36.608c-.013,3.622-.008,7.245-.008,10.867v.4c-.137-.067-.24-.109-.336-.165q-4.565-2.635-9.131-5.267a1.3,1.3,0,0,1-.729-1.2q0-5.335,0-10.671C141.951,156.017,141.959,155.965,141.969,155.85Z" transform="translate(-133.224 -148.134)" fill="#fff"/>
      <path id="Path_14" data-name="Path 14" d="M68.721,243.739c-1.287-.474-2.529-.877-3.727-1.385a12.268,12.268,0,0,1-4.892-3.437,5.154,5.154,0,0,1,.076-7.067,12.8,12.8,0,0,1,4.933-3.34c0,.675-.03,1.335.01,1.99a.756.756,0,0,1-.5.832A8.143,8.143,0,0,0,62,233.3a3.006,3.006,0,0,0,.04,4.312,8.8,8.8,0,0,0,3.17,2.258c1.3.569,2.635,1.051,4.008,1.591.187-.843.357-1.566.5-2.292a1.233,1.233,0,0,1,.864-1.058,1.218,1.218,0,0,1,1.3.425q2.072,2.117,4.15,4.226a1.193,1.193,0,0,1-.428,2.1c-1.877.756-3.759,1.5-5.636,2.255a1.193,1.193,0,0,1-1.67-1.42C68.459,245.032,68.587,244.366,68.721,243.739Z" transform="translate(-58.738 -213.175)" fill="#fff"/>
    </g>
  </g>
</svg>
