<svg xmlns="http://www.w3.org/2000/svg" xmlns:xlink="http://www.w3.org/1999/xlink" width="68" height="68" viewBox="0 0 68 68">
  <defs>
    <linearGradient id="linear-gradient" x1="0.5" x2="0.5" y2="1" gradientUnits="objectBoundingBox">
      <stop offset="0" stop-color="#ff6951"/>
      <stop offset="1" stop-color="#f33990"/>
    </linearGradient>
  </defs>
  <g id="animation-icon" transform="translate(-800 -884)">
    <circle id="Ellipse_1" data-name="Ellipse 1" cx="34" cy="34" r="34" transform="translate(800 884)" fill="url(#linear-gradient)"/>
    <g id="animation" transform="translate(814 898)">
      <path id="Path_15" data-name="Path 15" d="M98.827,79.78c-.072.343-.138.687-.219,1.028a7.807,7.807,0,0,1-7.561,6.033q-12.321.025-24.643,0a7.818,7.818,0,0,1-7.765-7.788q-.028-6.339,0-12.677a7.817,7.817,0,0,1,7.766-7.786q12.321-.03,24.643,0a7.818,7.818,0,0,1,7.711,6.84,1.3,1.3,0,0,0,.069.219Q98.826,72.714,98.827,79.78ZM78.771,61.721q-6.062,0-12.125,0A4.713,4.713,0,0,0,61.773,66.6q0,6.1,0,12.2a4.716,4.716,0,0,0,4.889,4.9q12.066,0,24.132,0a4.716,4.716,0,0,0,4.892-4.9q0-6.083,0-12.166a4.715,4.715,0,0,0-4.909-4.919Z" transform="translate(-58.625 -58.574)" fill="#fff"/>
      <path id="Path_16" data-name="Path 16" d="M81.1,361.505c-.339-.091-.686-.16-1.016-.278a4.559,4.559,0,0,1-2.734-2.54.47.47,0,0,0-.519-.327q-8.2.009-16.4,0a1.572,1.572,0,1,1-.255-3.134c.143-.01.287-.005.431-.005q8.1,0,16.2,0c.224,0,.4.009.519-.268a4.687,4.687,0,0,1,5.281-2.777,4.712,4.712,0,0,1-.12,9.249,1.433,1.433,0,0,0-.213.077Zm2.117-4.705a1.569,1.569,0,1,0-1.575,1.564A1.574,1.574,0,0,0,83.218,356.8Z" transform="translate(-58.719 -321.298)" fill="#fff"/>
      <path id="Path_17" data-name="Path 17" d="M361.58,383.88a1.779,1.779,0,0,1-1.959,1.267c-1.961-.037-3.924-.006-5.886-.015a1.549,1.549,0,0,1-1.533-1.219,1.52,1.52,0,0,1,.786-1.719,2.112,2.112,0,0,1,.865-.192c1.922-.017,3.845.018,5.767-.019a1.774,1.774,0,0,1,1.958,1.267C361.58,383.461,361.58,383.67,361.58,383.88Z" transform="translate(-321.378 -348.069)" fill="#fff"/>
      <path id="Path_18" data-name="Path 18" d="M126.158,127.593a11.046,11.046,0,0,1,2.6-3.244,10.725,10.725,0,0,1,7.361-2.63,1.256,1.256,0,0,0,1.37-.761,4.586,4.586,0,0,1,5.438-2.181,4.7,4.7,0,0,1-.661,9.149,4.68,4.68,0,0,1-5.017-2.749.482.482,0,0,0-.514-.337,8.29,8.29,0,0,0-4.888,1.14,7.741,7.741,0,0,0-3.8,6.648,1.572,1.572,0,1,1-3.142.088,4.707,4.707,0,0,0-4.709-4.729,1.569,1.569,0,1,1,.049-3.136,7.769,7.769,0,0,1,5.636,2.442C125.962,127.375,126.038,127.463,126.158,127.593Zm16.955-4.314a1.568,1.568,0,1,0-1.572,1.565A1.574,1.574,0,0,0,143.113,123.279Z" transform="translate(-112.333 -112.276)" fill="#fff"/>
    </g>
  </g>
</svg>
