<svg xmlns="http://www.w3.org/2000/svg" xmlns:xlink="http://www.w3.org/1999/xlink" width="68" height="68" viewBox="0 0 68 68">
  <defs>
    <linearGradient id="linear-gradient" x1="0.5" x2="0.5" y2="1" gradientUnits="objectBoundingBox">
      <stop offset="0" stop-color="#ff6951"/>
      <stop offset="1" stop-color="#f33990"/>
    </linearGradient>
  </defs>
  <g id="design-icon" transform="translate(-1208 -884)">
    <circle id="Ellipse_2" data-name="Ellipse 2" cx="34" cy="34" r="34" transform="translate(1208 884)" fill="url(#linear-gradient)"/>
    <g id="design" transform="translate(1223 898)">
      <path id="Path_19" data-name="Path 19" d="M319.021,38a1.19,1.19,0,0,0,.17.08,2.4,2.4,0,0,1,1.211,3.893c-1.127,1.409-2.279,2.8-3.42,4.2q-1.785,2.188-3.572,4.377c-.073.09-.154.175-.206.233l-5-4.995c.184-.154.407-.346.634-.533,2.694-2.2,5.382-4.408,8.089-6.592a7.364,7.364,0,0,1,1.225-.66Z" transform="translate(-283.15 -38)" fill="#fff"/>
      <path id="Path_20" data-name="Path 20" d="M88.126,132.428A6.981,6.981,0,0,0,86.841,135c-.025.1-.209.2-.333.229a6.508,6.508,0,0,0-4.985,3.875,8.057,8.057,0,0,0-.568,3.338c0,.47-.006.942-.04,1.41a3.637,3.637,0,0,1-.634,1.663,2.729,2.729,0,0,0,1.562,4.1,2.435,2.435,0,0,0,2.178-.311,4.164,4.164,0,0,1,2.637-.7,9.438,9.438,0,0,0,3.443-.424,6.308,6.308,0,0,0,4.155-4.865.782.782,0,0,1,.653-.7,6.026,6.026,0,0,0,3.1-2.034c1.258-1.523,2.5-3.057,3.75-4.587.064-.078.133-.15.244-.273v15.4H69.247c-.006-.12-.02-.244-.02-.37q0-7.553,0-15.108a3.134,3.134,0,0,1,3.218-3.231q7.692-.014,15.382,0C87.9,132.411,87.977,132.419,88.126,132.428Z" transform="translate(-69.226 -122.51)" fill="#fff"/>
      <path id="Path_21" data-name="Path 21" d="M102.019,333.851a3.309,3.309,0,0,1-2.349,4.009,4.441,4.441,0,0,1-1.049.108c-2.708.008-5.415,0-8.123,0h-.49v2.689c.649,0,1.3-.008,1.947,0a1.125,1.125,0,0,1,1.08.712,1.113,1.113,0,0,1-.2,1.243,1.258,1.258,0,0,1-1.022.4q-3.767-.008-7.534,0c-1.151,0-2.3-.037-3.453.007-2.428.094-2.58-.336-2.6-1.177-.016-.775.1-1.319,2.578-1.187.167.008.335,0,.521,0v-2.689h-.479c-2.76,0-5.52.006-8.28,0a3.136,3.136,0,0,1-3.264-2.724,9.942,9.942,0,0,1-.009-1.395Z" transform="translate(-69.264 -302.826)" fill="#fff"/>
      <path id="Path_22" data-name="Path 22" d="M198.554,189.389c-.662.064-1.327.1-1.983.2a4.827,4.827,0,0,0-2.129.839.59.59,0,0,1-.542-.009c-.084-.056-.1-.388-.013-.5a6.406,6.406,0,0,0,1.008-3.719,13.372,13.372,0,0,1,.127-2.144,4.057,4.057,0,0,1,3.489-3.295,4.464,4.464,0,0,1,4.444,2.03,4.3,4.3,0,0,1-3.455,6.647c-.312.016-.627,0-.941,0C198.558,189.417,198.556,189.4,198.554,189.389Z" transform="translate(-180.764 -165.731)" fill="#fff"/>
      <path id="Path_23" data-name="Path 23" d="M268.62,132.722c-1.027,1.1-1.728,2.6-3.419,3.074a6.9,6.9,0,0,0-5.031-5.04c.453-1.688,1.976-2.385,3.067-3.415Z" transform="translate(-240.147 -117.972)" fill="#fff"/>
    </g>
  </g>
</svg>
