<svg xmlns="http://www.w3.org/2000/svg" xmlns:xlink="http://www.w3.org/1999/xlink" width="68" height="68" viewBox="0 0 68 68">
  <defs>
    <linearGradient id="linear-gradient" x1="0.5" x2="0.5" y2="1" gradientUnits="objectBoundingBox">
      <stop offset="0" stop-color="#ff6951"/>
      <stop offset="1" stop-color="#f33990"/>
    </linearGradient>
  </defs>
  <g id="effects-icon" transform="translate(-390 -1279)">
    <circle id="Ellipse_3" data-name="Ellipse 3" cx="34" cy="34" r="34" transform="translate(390 1279)" fill="url(#linear-gradient)"/>
    <g id="effects" transform="translate(404 1293)">
      <path id="Path_6" data-name="Path 6" d="M45,155.591a3.579,3.579,0,0,0,.355-.281Q58.814,141.856,72.267,128.4a2.713,2.713,0,0,0,.255-.338l5.015,5.01L49.956,160.651c-1.625-1.633-3.291-3.307-4.956-4.982Zm24.587-18.336,3.473-3.472L71.9,132.645,68.441,136.1Z" transform="translate(-45 -121.092)" fill="#fff"/>
      <path id="Path_7" data-name="Path 7" d="M155.47,63.72a7.719,7.719,0,0,0,6.735,6.726,7.706,7.706,0,0,0-6.734,6.719,7.7,7.7,0,0,0-6.7-6.72A7.707,7.707,0,0,0,155.47,63.72Z" transform="translate(-137.888 -63.499)" fill="#fff"/>
      <path id="Path_8" data-name="Path 8" d="M342.512,70.384a5.234,5.234,0,0,0-4.442-4.337A5.215,5.215,0,0,0,342.5,61.61a5.243,5.243,0,0,0,4.341,4.441,5.4,5.4,0,0,0-2.856,1.459A5.344,5.344,0,0,0,342.512,70.384Z" transform="translate(-307.338 -61.61)" fill="#fff"/>
      <path id="Path_9" data-name="Path 9" d="M364.747,210.716c-.866-2.212-1.169-2.514-3.257-3.251a3.923,3.923,0,0,0,3.228-3.285,4,4,0,0,0,3.2,3.3,4.252,4.252,0,0,0-2.089,1.109A4.005,4.005,0,0,0,364.747,210.716Z" transform="translate(-328.302 -189.23)" fill="#fff"/>
    </g>
  </g>
</svg>
