<svg xmlns="http://www.w3.org/2000/svg" xmlns:xlink="http://www.w3.org/1999/xlink" width="68" height="68" viewBox="0 0 68 68">
  <defs>
    <linearGradient id="linear-gradient" x1="0.5" x2="0.5" y2="1" gradientUnits="objectBoundingBox">
      <stop offset="0" stop-color="#ff6951"/>
      <stop offset="1" stop-color="#f33990"/>
    </linearGradient>
  </defs>
  <g id="transition-icon" transform="translate(-800 -1279)">
    <circle id="Ellipse_4" data-name="Ellipse 4" cx="34" cy="34" r="34" transform="translate(800 1279)" fill="url(#linear-gradient)"/>
    <g id="transition" transform="translate(814 1293)">
      <path id="Path_24" data-name="Path 24" d="M72,163.66c.13-.8.221-1.6.4-2.386a15.291,15.291,0,0,1,12.341-11.669,15.1,15.1,0,0,1,12.206,3.152c.093.072.181.15.27.229.018.016.026.043.014.022l-8.631,8.617c0-.443.005-.927,0-1.411a1.187,1.187,0,0,0-.817-1.169,1.164,1.164,0,0,0-1.532,1.065c-.024,1.517-.02,3.035,0,4.552a1.138,1.138,0,0,0,1.151,1.113q2.241.02,4.482,0a1.173,1.173,0,1,0-.025-2.347c-.493-.01-.986,0-1.454,0l8.631-8.61a2.25,2.25,0,0,1,.18.191,14.923,14.923,0,0,1,3.318,11.655,15.326,15.326,0,0,1-30.117,1.5c-.182-.811-.275-1.642-.409-2.464Q72,164.681,72,163.66Z" transform="translate(-72 -139.795)" fill="#fff"/>
      <path id="Path_25" data-name="Path 25" d="M212.37,74.417c-.13.771-.216,1.552-.4,2.311A15.2,15.2,0,0,1,205,86.392c-.053.034-.11.062-.191.107.094-.821.218-1.6.262-2.391a1.517,1.517,0,0,1,.557-1.119c3.809-3.557,5.253-7.924,3.919-12.955a12.272,12.272,0,0,0-9.947-9.38,12.486,12.486,0,0,0-12.439,4.285.9.9,0,0,1-.662.325c-.872.073-1.741.185-2.671.287.1-.161.181-.311.277-.454a15.213,15.213,0,0,1,11.565-7.023,1.939,1.939,0,0,0,.261-.065h2.123c.53.077,1.06.144,1.588.231a15.335,15.335,0,0,1,12.324,11.631c.178.8.271,1.617.4,2.425Q212.37,73.356,212.37,74.417Z" transform="translate(-172.103 -58.01)" fill="#fff"/>
      <path id="Path_26" data-name="Path 26" d="M315.834,140.6l-1.694-1.686L317,136.065c-.017-.036-.035-.071-.051-.108-.45,0-.9,0-1.351,0a1.186,1.186,0,1,1,.006-2.354q2.083,0,4.165,0a1.189,1.189,0,0,1,1.3,1.286q.006,2.119,0,4.236a1.182,1.182,0,1,1-2.357,0c0-.465,0-.929,0-1.416Z" transform="translate(-288.749 -125.674)" fill="#fff"/>
    </g>
  </g>
</svg>
